<!-- <?xml version="1.0" encoding="UTF-8"?>
<!DOCTYPE svg PUBLIC "-//W3C//DTD SVG 1.1//EN" "http://www.w3.org/Graphics/SVG/1.1/DTD/svg11.dtd"> -->
<svg xmlns="http://www.w3.org/2000/svg" version="1.1" width="270" height="34" viewBox="0 0 270 34" fill="none" style="shape-rendering:geometricPrecision; text-rendering:geometricPrecision; image-rendering:optimizeQuality; fill-rule:evenodd; clip-rule:evenodd" xmlns:xlink="http://www.w3.org/1999/xlink">
<g><path style="opacity:0.004" fill="#fcfdfe" d="M 23.5,3.5 C 22.8333,2.16667 22.8333,2.16667 23.5,3.5 Z"/></g>
<g><path style="opacity:0.009" fill="#fcfcfa" d="M 78.5,4.5 C 77.1667,4.5 75.8333,4.5 74.5,4.5C 74.369,3.76109 74.5357,3.09442 75,2.5C 76,3.83333 77,3.83333 78,2.5C 78.4643,3.09442 78.631,3.76109 78.5,4.5 Z"/></g>
<g><path style="opacity:0.008" fill="#fbfcf8" d="M 126.5,4.5 C 124.5,4.5 122.5,4.5 120.5,4.5C 122.5,1.83333 124.5,1.83333 126.5,4.5 Z"/></g>
<g><path style="opacity:0.024" fill="#f5f5f2" d="M 185.5,10.5 C 184.833,10.5 184.167,10.5 183.5,10.5C 183.167,10.5 182.833,10.5 182.5,10.5C 183.11,9.60895 183.443,8.60895 183.5,7.5C 183.5,6.5 183.5,5.5 183.5,4.5C 182.167,4.5 180.833,4.5 179.5,4.5C 179.369,3.76109 179.536,3.09442 180,2.5C 181.356,3.38017 182.856,3.71351 184.5,3.5C 184.448,5.90291 184.781,8.23625 185.5,10.5 Z"/></g>
<g><path style="opacity:0.83" fill="#b0b0a8" d="M 23.5,3.5 C 24.8333,9.83333 24.8333,16.1667 23.5,22.5C 22.1667,20.8333 20.8333,19.1667 19.5,17.5C 20.069,13.6707 19.4023,10.3373 17.5,7.5C 15.8333,7.5 14.1667,7.5 12.5,7.5C 12.5,6.5 12.5,5.5 12.5,4.5C 16.3714,4.81497 20.0381,4.48164 23.5,3.5 Z"/></g>
<g><path style="opacity:0.004" fill="#fbfcfb" d="M 57.5,5.5 C 58.8333,6.16667 58.8333,6.16667 57.5,5.5 Z"/></g>
<g><path style="opacity:0.769" fill="#afb0ab" d="M 74.5,4.5 C 75.8333,4.5 77.1667,4.5 78.5,4.5C 79.8852,5.9473 79.5518,6.9473 77.5,7.5C 76.5,7.5 75.5,7.5 74.5,7.5C 74.5,6.5 74.5,5.5 74.5,4.5 Z"/></g>
<g><path style="opacity:0.843" fill="#aeafa8" d="M 179.5,4.5 C 180.833,4.5 182.167,4.5 183.5,4.5C 183.5,5.5 183.5,6.5 183.5,7.5C 182.609,8.10978 181.609,8.44312 180.5,8.5C 180.5,7.83333 180.167,7.5 179.5,7.5C 179.5,6.5 179.5,5.5 179.5,4.5 Z"/></g>
<g><path style="opacity:0.192" fill="#e5e5e3" d="M 74.5,4.5 C 74.5,5.5 74.5,6.5 74.5,7.5C 72.4433,5.95671 72.4433,4.95671 74.5,4.5 Z"/></g>
<g><path style="opacity:0.018" fill="#f6f6f3" d="M 179.5,4.5 C 179.5,5.5 179.5,6.5 179.5,7.5C 180.167,7.5 180.5,7.83333 180.5,8.5C 180.5,9.16667 180.5,9.83333 180.5,10.5C 179.833,10.5 179.5,10.8333 179.5,11.5C 177.926,11.9371 176.759,12.9371 176,14.5C 175.601,14.2716 175.435,13.9382 175.5,13.5C 175.5,12.5 175.5,11.5 175.5,10.5C 173.063,10.7563 170.729,11.4229 168.5,12.5C 167.158,10.9951 165.492,10.3285 163.5,10.5C 163.369,9.76109 163.536,9.09442 164,8.5C 167.308,9.40307 170.808,9.7364 174.5,9.5C 177.188,8.71768 178.188,7.21768 177.5,5C 178.094,4.53566 178.761,4.36899 179.5,4.5 Z"/></g>
<g><path style="opacity:0.008" fill="#fffefb" d="M 17.5,7.5 C 19.4023,10.3373 20.069,13.6707 19.5,17.5C 19.5,18.1667 19.5,18.8333 19.5,19.5C 18.6223,15.6643 17.9557,11.6643 17.5,7.5 Z"/></g>
<g><path style="opacity:0.08" fill="#f2f3ee" d="M 52.5,3.5 C 52.5,11.1667 52.5,18.8333 52.5,26.5C 51.7611,26.631 51.0944,26.4643 50.5,26C 51.1518,18.4013 51.8185,10.9013 52.5,3.5 Z"/></g>
<g><path style="opacity:0.858" fill="#acada7" d="M 56.5,7.5 C 56.5,8.83333 56.5,10.1667 56.5,11.5C 57.1712,12.8471 57.1712,14.0138 56.5,15C 57.0944,15.4643 57.7611,15.631 58.5,15.5C 57.1736,17.1951 57.5069,18.5284 59.5,19.5C 58.5,19.5 57.5,19.5 56.5,19.5C 56.5,20.5 56.5,21.5 56.5,22.5C 56.9258,24.1388 56.9258,25.4721 56.5,26.5C 55.1667,26.5 53.8333,26.5 52.5,26.5C 52.5,18.8333 52.5,11.1667 52.5,3.5C 56.7865,1.78632 58.1198,3.11966 56.5,7.5 Z"/></g>
<g><path style="opacity:0.004" fill="#fafcf6" d="M 129.5,7.5 C 130.833,8.16667 130.833,8.16667 129.5,7.5 Z"/></g>
<g><path style="opacity:0.02" fill="#fdfdf9" d="M 56.5,7.5 C 58.7813,8.63445 58.7813,9.96778 56.5,11.5C 56.5,10.1667 56.5,8.83333 56.5,7.5 Z"/></g>
<g><path style="opacity:0.009" fill="#fcfcf8" d="M 74.5,7.5 C 75.5,7.5 76.5,7.5 77.5,7.5C 78.1098,8.39105 78.4431,9.39105 78.5,10.5C 77.1667,10.5 75.8333,10.5 74.5,10.5C 73.1667,9.5 73.1667,8.5 74.5,7.5 Z"/></g>
<g><path style="opacity:0.006" fill="#f5f5f0" d="M 39.5,10.5 C 36.1401,10.6159 32.8067,10.9492 29.5,11.5C 31.1175,10.0277 33.1175,9.36103 35.5,9.5C 37.0451,9.51084 38.3784,9.84417 39.5,10.5 Z"/></g>
<g><path style="opacity:0.006" fill="#f3f3ef" d="M 71.5,11.5 C 71.1667,11.5 70.8333,11.5 70.5,11.5C 69.0536,10.3871 67.3869,10.2204 65.5,11C 63.2657,12.7498 60.9324,14.2498 58.5,15.5C 60.5843,12.2483 63.4176,9.91501 67,8.5C 69.0263,8.91473 70.5263,9.91473 71.5,11.5 Z"/></g>
<g><path style="opacity:0.035" fill="#f6f7f4" d="M 79.5,9.5 C 80.8333,10.1667 80.8333,10.1667 79.5,9.5 Z"/></g>
<g><path style="opacity:0.034" fill="#f9f9f4" d="M 97.5,10.5 C 94.6872,10.5481 92.0205,11.2147 89.5,12.5C 88.8182,11.7573 88.1515,11.0906 87.5,10.5C 87.811,9.52216 88.4777,8.85549 89.5,8.5C 92.3106,9.07963 94.9773,9.74629 97.5,10.5 Z"/></g>
<g><path style="opacity:0.004" fill="#fafcf6" d="M 130.5,9.5 C 131.833,10.1667 131.833,10.1667 130.5,9.5 Z"/></g>
<g><path style="opacity:0.027" fill="#f8f9f4" d="M 156.5,11.5 C 151.969,9.86423 147.636,10.1976 143.5,12.5C 143.672,11.5084 143.338,10.8417 142.5,10.5C 147.254,8.17269 151.921,8.50603 156.5,11.5 Z"/></g>
<g><path style="opacity:0.012" fill="#f7f8f9" d="M 157.5,9.5 C 158.833,10.1667 158.833,10.1667 157.5,9.5 Z"/></g>
<g><path style="opacity:0.008" fill="#f1f2ef" d="M 252.5,16.5 C 249.366,10.3248 244.699,8.99145 238.5,12.5C 237.735,11.3881 236.735,10.7214 235.5,10.5C 242.931,6.50117 248.931,8.00117 253.5,15C 252.944,15.3826 252.611,15.8826 252.5,16.5 Z"/></g>
<g><path style="opacity:0.38" fill="#e9e9e7" d="M 188.5,10.5 C 187.662,10.8417 187.328,11.5084 187.5,12.5C 186.5,12.1667 185.833,11.5 185.5,10.5C 186.652,9.37505 187.652,9.37505 188.5,10.5 Z"/></g>
<g><path style="opacity:0.004" fill="#f9fafb" d="M 71.5,11.5 C 72.8333,12.1667 72.8333,12.1667 71.5,11.5 Z"/></g>
<g><path style="opacity:0.951" fill="#b2b2aa" d="M 120.5,4.5 C 122.5,4.5 124.5,4.5 126.5,4.5C 127.143,6.07641 128.143,7.40974 129.5,8.5C 129.328,9.49162 129.662,10.1583 130.5,10.5C 130.833,11.8333 131.167,13.1667 131.5,14.5C 131.5,15.1667 131.5,15.8333 131.5,16.5C 130.732,15.7375 130.232,14.7375 130,13.5C 129.375,15.7071 128.541,17.0404 127.5,17.5C 127.5,17.1667 127.5,16.8333 127.5,16.5C 126.559,14.9505 125.893,13.2838 125.5,11.5C 123.649,7.61343 122.316,7.94677 121.5,12.5C 121.672,13.4916 121.338,14.1583 120.5,14.5C 119.596,15.209 119.263,16.209 119.5,17.5C 119.565,17.9382 119.399,18.2716 119,18.5C 118.764,16.8807 117.931,15.8807 116.5,15.5C 116.5,14.8333 116.5,14.1667 116.5,13.5C 117.597,10.3135 118.93,7.31354 120.5,4.5 Z M 125.5,11.5 C 125.893,13.2838 126.559,14.9505 127.5,16.5C 124.612,17.0102 122.279,16.3435 120.5,14.5C 121.338,14.1583 121.672,13.4916 121.5,12.5C 122.833,12.1667 124.167,11.8333 125.5,11.5 Z"/></g>
<g><path style="opacity:0.009" fill="#f7f6f3" d="M 125.5,11.5 C 124.167,11.8333 122.833,12.1667 121.5,12.5C 122.316,7.94677 123.649,7.61343 125.5,11.5 Z"/></g>
<g><path style="opacity:0.831" fill="#aaaba4" d="M 156.5,11.5 C 157.167,12.8333 158.167,13.8333 159.5,14.5C 159.758,16.1902 159.758,18.1902 159.5,20.5C 158.512,21.795 157.512,23.1283 156.5,24.5C 156.5,25.1667 156.167,25.5 155.5,25.5C 155.167,25.5 154.833,25.5 154.5,25.5C 153.448,23.744 151.781,23.0773 149.5,23.5C 150.209,22.596 151.209,22.2627 152.5,22.5C 153.496,22.5858 154.329,22.2524 155,21.5C 155.789,19.2884 155.622,17.2884 154.5,15.5C 153.054,14.0598 151.221,13.3932 149,13.5C 147.615,13.5143 146.449,13.8476 145.5,14.5C 144.833,14.5 144.167,14.5 143.5,14.5C 143.5,13.8333 143.5,13.1667 143.5,12.5C 147.636,10.1976 151.969,9.86423 156.5,11.5 Z"/></g>
<g><path style="opacity:0.009" fill="#f6f6f2" d="M 204.5,10.5 C 208.551,10.1376 212.884,9.80431 217.5,9.5C 219.833,9.66667 222.167,9.83333 224.5,10C 225.056,10.3826 225.389,10.8826 225.5,11.5C 220.491,10.2477 215.491,10.2477 210.5,11.5C 210.5,12.5 210.5,13.5 210.5,14.5C 209.85,14.1961 209.183,13.8627 208.5,13.5C 207.304,13.8457 207.304,14.3457 208.5,15C 207.552,15.4828 206.552,15.6495 205.5,15.5C 206.153,14.1932 206.82,12.8599 207.5,11.5C 206.675,10.6143 205.675,10.281 204.5,10.5 Z"/></g>
<g><path style="opacity:0.951" fill="#a7a8a0" d="M 225.5,11.5 C 226.833,11.5 227.5,12.1667 227.5,13.5C 227.5,17.8333 227.5,22.1667 227.5,26.5C 226.833,26.5 226.167,26.5 225.5,26.5C 225.59,23.8478 224.924,21.5145 223.5,19.5C 222.167,19.5 220.833,19.5 219.5,19.5C 218.022,19.762 216.689,19.4287 215.5,18.5C 217.291,17.8302 218.958,17.1635 220.5,16.5C 223.853,16.6547 224.186,15.9881 221.5,14.5C 218.5,13.1667 215.5,13.1667 212.5,14.5C 212.167,14.5 211.833,14.5 211.5,14.5C 211.167,14.5 210.833,14.5 210.5,14.5C 210.5,13.5 210.5,12.5 210.5,11.5C 215.491,10.2477 220.491,10.2477 225.5,11.5 Z"/></g>
<g><path style="opacity:0.004" fill="#f5f6f0" d="M 70.5,11.5 C 70.0269,12.9063 69.0269,13.573 67.5,13.5C 67.9731,12.0937 68.9731,11.427 70.5,11.5 Z"/></g>
<g><path style="opacity:0.839" fill="#abaca5" d="M 87.5,10.5 C 88.1515,11.0906 88.8182,11.7573 89.5,12.5C 92.0205,11.2147 94.6872,10.5481 97.5,10.5C 98.8852,11.9473 98.5518,12.9473 96.5,13.5C 91.0929,12.1804 88.4263,14.1804 88.5,19.5C 88.7153,22.1437 88.7153,24.477 88.5,26.5C 87.1667,26.5 85.8333,26.5 84.5,26.5C 84.5,25.5 84.5,24.5 84.5,23.5C 84.5662,19.1648 84.2329,15.1648 83.5,11.5C 84.3246,9.29967 85.6579,8.96634 87.5,10.5 Z"/></g>
<g><path style="opacity:0.835" fill="#acaca4" d="M 142.5,10.5 C 143.338,10.8417 143.672,11.5084 143.5,12.5C 143.5,13.1667 143.5,13.8333 143.5,14.5C 143.5,15.8333 143.5,17.1667 143.5,18.5C 143.5,18.8333 143.5,19.1667 143.5,19.5C 143.5,20.1667 143.5,20.8333 143.5,21.5C 145.214,22.7384 147.214,23.405 149.5,23.5C 151.781,23.0773 153.448,23.744 154.5,25.5C 152.5,25.8333 150.5,26.1667 148.5,26.5C 146.894,27.3591 145.227,27.5258 143.5,27C 144.125,28.6395 144.125,30.4729 143.5,32.5C 142.167,32.5 140.833,32.5 139.5,32.5C 139.5,27.1667 139.5,21.8333 139.5,16.5C 139.643,14.7376 139.309,13.0709 138.5,11.5C 139.325,9.29967 140.658,8.96634 142.5,10.5 Z"/></g>
<g><path style="opacity:0.01" fill="#f8f8f6" d="M 156.5,11.5 C 159.195,11.5627 160.195,12.5627 159.5,14.5C 158.167,13.8333 157.167,12.8333 156.5,11.5 Z"/></g>
<g><path style="opacity:0.875" fill="#ababa2" d="M 163.5,10.5 C 165.492,10.3285 167.158,10.9951 168.5,12.5C 170.729,11.4229 173.063,10.7563 175.5,10.5C 175.5,11.5 175.5,12.5 175.5,13.5C 175.167,13.5 174.833,13.5 174.5,13.5C 172.585,13.2155 170.919,13.5489 169.5,14.5C 167.682,18.1726 167.016,22.1726 167.5,26.5C 166.167,26.5 164.833,26.5 163.5,26.5C 163.735,22.6138 163.402,18.6138 162.5,14.5C 162.232,12.901 162.566,11.5676 163.5,10.5 Z"/></g>
<g><path style="opacity:0.012" fill="#fbfbfa" d="M 184.5,12.5 C 185.289,12.7828 185.956,13.2828 186.5,14C 185.184,14.5281 184.517,14.0281 184.5,12.5 Z"/></g>
<g><path style="opacity:0.817" fill="#b3b4ac" d="M 235.5,10.5 C 236.735,10.7214 237.735,11.3881 238.5,12.5C 244.699,8.99145 249.366,10.3248 252.5,16.5C 253.782,19.9359 253.782,23.2693 252.5,26.5C 251.167,26.5 249.833,26.5 248.5,26.5C 248.815,22.6286 248.482,18.9619 247.5,15.5C 246.167,14.8333 244.833,14.1667 243.5,13.5C 240.607,13.0311 238.607,14.0311 237.5,16.5C 237.216,19.7766 237.549,22.9433 238.5,26C 236.798,27.7184 234.965,27.885 233,26.5C 232.333,21.1667 232.333,15.8333 233,10.5C 233.77,9.40191 234.603,9.40191 235.5,10.5 Z"/></g>
<g><path style="opacity:0.008" fill="#f1f2ed" d="M 29.5,11.5 C 33.6248,12.9687 37.9581,14.302 42.5,15.5C 38.9725,16.9213 35.3058,17.5879 31.5,17.5C 33.0188,16.5902 34.6854,15.7568 36.5,15C 34.2305,14.2419 32.0639,14.4086 30,15.5C 28.3702,14.1821 28.2035,12.8488 29.5,11.5 Z"/></g>
<g><path style="opacity:0.858" fill="#aaaaa2" d="M 74.5,10.5 C 75.8333,10.5 77.1667,10.5 78.5,10.5C 78.8333,10.5 79.1667,10.5 79.5,10.5C 78.5491,16.0504 78.2157,21.3838 78.5,26.5C 77.1667,26.5 75.8333,26.5 74.5,26.5C 74.5,25.1667 74.5,23.8333 74.5,22.5C 74.0354,17.9808 74.0354,13.9808 74.5,10.5 Z"/></g>
<g><path style="opacity:0.006" fill="#f2f2ee" d="M 169.5,14.5 C 170.919,13.5489 172.585,13.2155 174.5,13.5C 172.926,14.9281 171.259,15.2614 169.5,14.5 Z"/></g>
<g><path style="opacity:0.855" fill="#a8a89f" d="M 180.5,10.5 C 181.167,10.5 181.833,10.5 182.5,10.5C 182.833,10.5 183.167,10.5 183.5,10.5C 183.833,11.1667 184.167,11.8333 184.5,12.5C 183.514,16.97 183.181,21.6367 183.5,26.5C 182.167,26.5 180.833,26.5 179.5,26.5C 179.402,21.6295 179.402,16.6295 179.5,11.5C 179.5,10.8333 179.833,10.5 180.5,10.5 Z"/></g>
<g><path style="opacity:0.027" fill="#f7f7f4" d="M 96.5,13.5 C 94.6115,14.322 92.6115,15.1553 90.5,16C 89.9152,17.3024 89.2485,18.469 88.5,19.5C 88.4263,14.1804 91.0929,12.1804 96.5,13.5 Z"/></g>
<g><path style="opacity:0.008" fill="#f4f5ed" d="M 145.5,14.5 C 146.449,13.8476 147.615,13.5143 149,13.5C 151.221,13.3932 153.054,14.0598 154.5,15.5C 151.545,14.8413 148.545,14.5079 145.5,14.5 Z"/></g>
<g><path style="opacity:0.008" fill="#fbfcfb" d="M 162.5,14.5 C 161.833,15.1667 161.833,15.1667 162.5,14.5 Z"/></g>
<g><path style="opacity:0.286" fill="#e0e1db" d="M 187.5,12.5 C 189.25,13.6594 190.25,15.326 190.5,17.5C 188.75,16.3406 187.75,14.674 187.5,12.5 Z"/></g>
<g><path style="opacity:0.063" fill="#eeefea" d="M 243.5,13.5 C 241.544,14.4918 239.544,15.4918 237.5,16.5C 238.607,14.0311 240.607,13.0311 243.5,13.5 Z"/></g>
<g><path style="opacity:0.067" fill="#e7e8e1" d="M 116.5,13.5 C 116.5,14.1667 116.5,14.8333 116.5,15.5C 115.833,16.1667 115.167,16.8333 114.5,17.5C 114.229,15.6203 114.896,14.287 116.5,13.5 Z"/></g>
<g><path style="opacity:0.006" fill="#fbfbf7" d="M 120.5,14.5 C 122.279,16.3435 124.612,17.0102 127.5,16.5C 127.5,16.8333 127.5,17.1667 127.5,17.5C 124.833,17.5 122.167,17.5 119.5,17.5C 119.263,16.209 119.596,15.209 120.5,14.5 Z"/></g>
<g><path style="opacity:0.018" fill="#f8f8f8" d="M 143.5,14.5 C 144.167,14.5 144.833,14.5 145.5,14.5C 145.011,15.9952 144.345,17.3285 143.5,18.5C 143.5,17.1667 143.5,15.8333 143.5,14.5 Z"/></g>
<g><path style="opacity:0.973" fill="#afafa8" d="M 188.5,10.5 C 192.249,10.6173 194.249,12.6173 194.5,16.5C 195.303,19.6675 196.636,22.6675 198.5,25.5C 198,25.8333 197.5,26.1667 197,26.5C 195.989,25.9444 195.156,25.2778 194.5,24.5C 194.167,24.5 193.833,24.5 193.5,24.5C 192.758,22.0202 191.758,19.6869 190.5,17.5C 190.25,15.326 189.25,13.6594 187.5,12.5C 187.328,11.5084 187.662,10.8417 188.5,10.5 Z"/></g>
<g><path style="opacity:0.9" fill="#b8b9b1" d="M 204.5,10.5 C 205.675,10.281 206.675,10.6143 207.5,11.5C 206.82,12.8599 206.153,14.1932 205.5,15.5C 204.921,18.3311 203.588,20.6644 201.5,22.5C 199.402,23.9143 198.402,23.2476 198.5,20.5C 199.524,16.4295 201.524,13.0962 204.5,10.5 Z"/></g>
<g><path style="opacity:0.019" fill="#fafaf6" d="M 221.5,14.5 C 220.508,14.3284 219.842,14.6618 219.5,15.5C 217.456,14.2216 215.456,14.3883 213.5,16C 213.728,16.3988 214.062,16.5654 214.5,16.5C 213.791,17.404 212.791,17.7373 211.5,17.5C 211.082,16.7784 210.416,16.2784 209.5,16C 210.056,15.6174 210.389,15.1174 210.5,14.5C 210.833,14.5 211.167,14.5 211.5,14.5C 211.833,15.8333 212.167,15.8333 212.5,14.5C 215.5,13.1667 218.5,13.1667 221.5,14.5 Z"/></g>
<g><path style="opacity:0.01" fill="#efeeec" d="M 63.5,15.5 C 64.8333,16.5 64.8333,17.5 63.5,18.5C 61.0155,17.7399 61.0155,16.7399 63.5,15.5 Z"/></g>
<g><path style="opacity:0.047" fill="#eeede8" d="M 131.5,14.5 C 133.104,15.287 133.771,16.6203 133.5,18.5C 132.833,17.8333 132.167,17.1667 131.5,16.5C 131.5,15.8333 131.5,15.1667 131.5,14.5 Z"/></g>
<g><path style="opacity:0.012" fill="#f6f7f4" d="M 25.5,17.5 C 26.8333,18.1667 26.8333,18.1667 25.5,17.5 Z"/></g>
<g><path style="opacity:0.286" fill="#dfdfd9" d="M 46.5,13.5 C 47.1955,17.2315 47.8622,21.0648 48.5,25C 47.944,25.3826 47.6107,25.8826 47.5,26.5C 47.1667,26.5 46.8333,26.5 46.5,26.5C 46.5,25.5 46.5,24.5 46.5,23.5C 46.5,20.1667 46.5,16.8333 46.5,13.5 Z"/></g>
<g><path style="opacity:0.96" fill="#ababa3" d="M 131.5,16.5 C 132.167,17.1667 132.833,17.8333 133.5,18.5C 133.66,20.153 134.326,21.4863 135.5,22.5C 135.5,23.1667 135.833,23.5 136.5,23.5C 136.5,24.5 136.5,25.5 136.5,26.5C 135.167,26.5 133.833,26.5 132.5,26.5C 131.662,26.1583 131.328,25.4916 131.5,24.5C 131.461,23.4168 131.127,22.4168 130.5,21.5C 127.232,20.513 123.898,20.1796 120.5,20.5C 120.167,20.5 119.833,20.5 119.5,20.5C 118.5,20.5 117.5,20.5 116.5,20.5C 116.5,21.5 116.5,22.5 116.5,23.5C 116.573,25.0269 115.906,26.0269 114.5,26.5C 113.167,26.5 111.833,26.5 110.5,26.5C 110.062,26.5654 109.728,26.3988 109.5,26C 111.067,23.0212 112.734,20.1879 114.5,17.5C 115.167,16.8333 115.833,16.1667 116.5,15.5C 117.931,15.8807 118.764,16.8807 119,18.5C 119.399,18.2716 119.565,17.9382 119.5,17.5C 122.167,17.5 124.833,17.5 127.5,17.5C 128.541,17.0404 129.375,15.7071 130,13.5C 130.232,14.7375 130.732,15.7375 131.5,16.5 Z"/></g>
<g><path style="opacity:0.004" fill="#fbfcfb" d="M 184.5,18.5 C 185.833,19.1667 185.833,19.1667 184.5,18.5 Z"/></g>
<g><path style="opacity:0.845" fill="#bebfb9" d="M 219.5,15.5 C 220.167,15.5 220.5,15.8333 220.5,16.5C 218.958,17.1635 217.291,17.8302 215.5,18.5C 216.689,19.4287 218.022,19.762 219.5,19.5C 218.432,20.4345 217.099,20.7678 215.5,20.5C 214.167,20.5 213.5,21.1667 213.5,22.5C 212.842,21.6016 212.176,20.6016 211.5,19.5C 209.296,20.782 208.962,22.4486 210.5,24.5C 210.167,24.5 209.833,24.5 209.5,24.5C 208.387,23.0536 208.22,21.3869 209,19.5C 209.417,18.244 210.25,17.5774 211.5,17.5C 212.791,17.7373 213.791,17.404 214.5,16.5C 216.415,16.7845 218.081,16.4511 219.5,15.5 Z"/></g>
<g><path style="opacity:0.978" fill="#a8a8a0" d="M 39.5,10.5 C 42.6305,9.90781 44.9639,10.9078 46.5,13.5C 46.5,16.8333 46.5,20.1667 46.5,23.5C 45.8826,23.6107 45.3826,23.944 45,24.5C 44.5831,23.244 43.7498,22.5774 42.5,22.5C 42.5,21.5 42.5,20.5 42.5,19.5C 39.0613,19.2529 35.728,19.5863 32.5,20.5C 31.448,20.6495 30.448,20.4828 29.5,20C 30.3805,19.2917 31.0472,18.4584 31.5,17.5C 35.3058,17.5879 38.9725,16.9213 42.5,15.5C 37.9581,14.302 33.6248,12.9687 29.5,11.5C 32.8067,10.9492 36.1401,10.6159 39.5,10.5 Z"/></g>
<g><path style="opacity:0.023" fill="#f9f8f4" d="M 59.5,19.5 C 59.5,19.8333 59.5,20.1667 59.5,20.5C 58.2223,20.7822 57.2223,21.4489 56.5,22.5C 56.5,21.5 56.5,20.5 56.5,19.5C 57.5,19.5 58.5,19.5 59.5,19.5 Z"/></g>
<g><path style="opacity:0.004" fill="#f7f8f5" d="M 67.5,19.5 C 68.8333,20.1667 68.8333,20.1667 67.5,19.5 Z"/></g>
<g><path style="opacity:0.006" fill="#f0f0ed" d="M 133.5,18.5 C 135.104,19.287 135.771,20.6203 135.5,22.5C 134.326,21.4863 133.66,20.153 133.5,18.5 Z"/></g>
<g><path style="opacity:0.007" fill="#fcfcfc" d="M 143.5,19.5 C 145.933,20.5477 145.933,21.2144 143.5,21.5C 143.5,20.8333 143.5,20.1667 143.5,19.5 Z"/></g>
<g><path style="opacity:0.555" fill="#dbdcd7" d="M 28.5,19.5 C 28.3248,23.6603 30.3248,25.9936 34.5,26.5C 30.5544,27.5072 27.8878,25.8405 26.5,21.5C 26.8555,20.4777 27.5222,19.811 28.5,19.5 Z"/></g>
<g><path style="opacity:0.01" fill="#f5f5f2" d="M 42.5,22.5 C 41.8333,22.5 41.1667,22.5 40.5,22.5C 40.1667,21.1667 39.8333,21.1667 39.5,22.5C 39.5,23.1667 39.1667,23.5 38.5,23.5C 38.1667,22.1667 37.8333,22.1667 37.5,23.5C 35.8333,23.5 34.1667,23.5 32.5,23.5C 32.5,22.5 32.5,21.5 32.5,20.5C 35.728,19.5863 39.0613,19.2529 42.5,19.5C 42.5,20.5 42.5,21.5 42.5,22.5 Z"/></g>
<g><path style="opacity:0.016" fill="#eaebe7" d="M 65.5,20.5 C 66.1667,20.5 66.8333,20.5 67.5,20.5C 68.1667,21.5 68.8333,22.5 69.5,23.5C 67.5956,23.2624 66.2623,22.2624 65.5,20.5 Z"/></g>
<g><path style="opacity:0.009" fill="#f9f9f5" d="M 120.5,20.5 C 123.898,20.1796 127.232,20.513 130.5,21.5C 131.127,22.4168 131.461,23.4168 131.5,24.5C 128.097,22.2641 124.431,20.9308 120.5,20.5 Z"/></g>
<g><path style="opacity:0.008" fill="#f8f9f6" d="M 206.5,20.5 C 207.833,21.1667 207.833,21.1667 206.5,20.5 Z"/></g>
<g><path style="opacity:0.265" fill="#e0e0dd" d="M 227.5,13.5 C 228.289,13.7828 228.956,14.2828 229.5,15C 228.167,18.6667 228.167,22.3333 229.5,26C 228.906,26.4643 228.239,26.631 227.5,26.5C 227.5,22.1667 227.5,17.8333 227.5,13.5 Z"/></g>
<g><path style="opacity:0.345" fill="#e3e2e0" d="M 19.5,20.5 C 18.9517,23.0838 17.285,24.0838 14.5,23.5C 16.2202,22.6923 17.8869,21.6923 19.5,20.5 Z"/></g>
<g><path style="opacity:0.169" fill="#ecebe8" d="M 119.5,20.5 C 118.5,21.5 117.5,22.5 116.5,23.5C 116.5,22.5 116.5,21.5 116.5,20.5C 117.5,20.5 118.5,20.5 119.5,20.5 Z"/></g>
<g><path style="opacity:0.341" fill="#e1e0dd" d="M 154.5,15.5 C 155.622,17.2884 155.789,19.2884 155,21.5C 154.329,22.2524 153.496,22.5858 152.5,22.5C 154.168,20.5214 154.834,18.188 154.5,15.5 Z"/></g>
<g><path style="opacity:0.961" fill="#a9aaa2" d="M 70.5,11.5 C 68.9731,11.427 67.9731,12.0937 67.5,13.5C 66.4863,14.6737 65.153,15.3404 63.5,15.5C 61.0155,16.7399 61.0155,17.7399 63.5,18.5C 64.5,18.8333 65.1667,19.5 65.5,20.5C 66.2623,22.2624 67.5956,23.2624 69.5,23.5C 69.9528,24.4584 70.6195,25.2917 71.5,26C 69.8659,26.4935 68.1992,26.6602 66.5,26.5C 64.7607,23.7573 62.4274,21.7573 59.5,20.5C 59.5,20.1667 59.5,19.8333 59.5,19.5C 57.5069,18.5284 57.1736,17.1951 58.5,15.5C 60.9324,14.2498 63.2657,12.7498 65.5,11C 67.3869,10.2204 69.0536,10.3871 70.5,11.5 Z"/></g>
<g><path style="opacity:0.183" fill="#ecece8" d="M 247.5,15.5 C 248.482,18.9619 248.815,22.6286 248.5,26.5C 249.833,26.5 251.167,26.5 252.5,26.5C 251.63,28.5988 250.297,28.9321 248.5,27.5C 247.509,23.5546 247.176,19.5546 247.5,15.5 Z"/></g>
<g><path style="opacity:0.004" fill="#edeeea" d="M 12.5,23.5 C 11.1667,23.5 9.83333,23.5 8.5,23.5C 8.5,24.5 8.5,25.5 8.5,26.5C 7.034,21.6293 8.36733,20.6293 12.5,23.5 Z"/></g>
<g><path style="opacity:0.865" fill="#aeafa7" d="M 19.5,17.5 C 20.8333,19.1667 22.1667,20.8333 23.5,22.5C 22.0563,25.8898 19.3896,27.2232 15.5,26.5C 13.1667,26.5 10.8333,26.5 8.5,26.5C 8.5,25.5 8.5,24.5 8.5,23.5C 9.83333,23.5 11.1667,23.5 12.5,23.5C 13.1667,23.5 13.8333,23.5 14.5,23.5C 17.285,24.0838 18.9517,23.0838 19.5,20.5C 19.5,20.1667 19.5,19.8333 19.5,19.5C 19.5,18.8333 19.5,18.1667 19.5,17.5 Z"/></g>
<g><path style="opacity:0.895" fill="#a9aaa0" d="M 31.5,17.5 C 31.0472,18.4584 30.3805,19.2917 29.5,20C 30.448,20.4828 31.448,20.6495 32.5,20.5C 32.5,21.5 32.5,22.5 32.5,23.5C 34.1667,23.5 35.8333,23.5 37.5,23.5C 37.8333,23.5 38.1667,23.5 38.5,23.5C 39.1667,23.5 39.5,23.1667 39.5,22.5C 39.8333,22.5 40.1667,22.5 40.5,22.5C 41.1667,22.5 41.8333,22.5 42.5,22.5C 43.7498,22.5774 44.5831,23.244 45,24.5C 45.3826,23.944 45.8826,23.6107 46.5,23.5C 46.5,24.5 46.5,25.5 46.5,26.5C 44.549,26.7733 43.049,26.1066 42,24.5C 40.3775,25.0989 38.8775,25.7656 37.5,26.5C 36.5,26.5 35.5,26.5 34.5,26.5C 30.3248,25.9936 28.3248,23.6603 28.5,19.5C 28.9731,18.0937 29.9731,17.427 31.5,17.5 Z"/></g>
<g><path style="opacity:0.263" fill="#eaeae6" d="M 59.5,20.5 C 62.4274,21.7573 64.7607,23.7573 66.5,26.5C 63.5726,25.2427 61.2393,23.2427 59.5,20.5 Z"/></g>
<g><path style="opacity:0.039" fill="#eaeae5" d="M 159.5,20.5 C 159.912,22.9726 158.912,24.3059 156.5,24.5C 157.512,23.1283 158.512,21.795 159.5,20.5 Z"/></g>
<g><path style="opacity:0.871" fill="#aaaba1" d="M 213.5,22.5 C 215.833,23.8333 218.167,23.8333 220.5,22.5C 222.5,22.5 223.5,21.5 223.5,19.5C 224.924,21.5145 225.59,23.8478 225.5,26.5C 223.347,25.4271 221.347,25.4271 219.5,26.5C 219.167,26.5 218.833,26.5 218.5,26.5C 215.447,26.8893 212.78,26.2227 210.5,24.5C 208.962,22.4486 209.296,20.782 211.5,19.5C 212.176,20.6016 212.842,21.6016 213.5,22.5 Z M 219.5,19.5 C 220.833,19.5 222.167,19.5 223.5,19.5C 223.5,21.5 222.5,22.5 220.5,22.5C 218.302,22.8799 216.635,22.2132 215.5,20.5C 217.099,20.7678 218.432,20.4345 219.5,19.5 Z"/></g>
<g><path style="opacity:0.022" fill="#f9faf3" d="M 215.5,20.5 C 216.635,22.2132 218.302,22.8799 220.5,22.5C 218.167,23.8333 215.833,23.8333 213.5,22.5C 213.5,21.1667 214.167,20.5 215.5,20.5 Z"/></g>
<g><path style="opacity:0.008" fill="#f6f5f7" d="M 193.5,24.5 C 192.833,25.1667 192.833,25.1667 193.5,24.5 Z"/></g>
<g><path style="opacity:0.018" fill="#f8f9f6" d="M 219.5,26.5 C 221.347,25.4271 223.347,25.4271 225.5,26.5C 226.167,26.5 226.833,26.5 227.5,26.5C 226.739,27.3909 225.739,28.0576 224.5,28.5C 223.28,27.2889 222.113,27.2889 221,28.5C 220.722,27.5842 220.222,26.9175 219.5,26.5 Z"/></g>
<g><path style="opacity:0.055" fill="#fbfcf8" d="M 8.5,26.5 C 10.8333,26.5 13.1667,26.5 15.5,26.5C 15.5,26.8333 15.5,27.1667 15.5,27.5C 13.8561,27.2865 12.3561,27.6198 11,28.5C 10.0053,27.9341 9.17197,27.2674 8.5,26.5 Z"/></g>
<g><path style="opacity:0.022" fill="#f8f8f8" d="M 46.5,26.5 C 46.8333,26.5 47.1667,26.5 47.5,26.5C 47.3209,27.9623 45.9876,28.6289 43.5,28.5C 41.0785,27.8261 39.0785,27.1594 37.5,26.5C 38.8775,25.7656 40.3775,25.0989 42,24.5C 43.049,26.1066 44.549,26.7733 46.5,26.5 Z"/></g>
<g><path style="opacity:0.035" fill="#f9faf6" d="M 52.5,26.5 C 53.8333,26.5 55.1667,26.5 56.5,26.5C 55.7387,27.3909 54.7387,28.0576 53.5,28.5C 52.7025,28.0431 52.3691,27.3764 52.5,26.5 Z"/></g>
<g><path style="opacity:0.06" fill="#fbfbf8" d="M 74.5,22.5 C 74.5,23.8333 74.5,25.1667 74.5,26.5C 75.8333,26.5 77.1667,26.5 78.5,26.5C 77.6879,27.9931 76.3545,28.6598 74.5,28.5C 72.7956,27.9319 71.2956,27.9319 70,28.5C 68.6976,27.9152 67.531,27.2485 66.5,26.5C 68.1992,26.6602 69.8659,26.4935 71.5,26C 70.6195,25.2917 69.9528,24.4584 69.5,23.5C 71.2915,23.634 72.9582,23.3007 74.5,22.5 Z"/></g>
<g><path style="opacity:0.014" fill="#fcfcf9" d="M 110.5,26.5 C 111.833,26.5 113.167,26.5 114.5,26.5C 112.998,29.0219 111.665,29.0219 110.5,26.5 Z"/></g>
<g><path style="opacity:0.004" fill="#fcfcf8" d="M 139.5,16.5 C 139.5,21.8333 139.5,27.1667 139.5,32.5C 140.833,32.5 142.167,32.5 143.5,32.5C 143.5,32.8333 143.5,33.1667 143.5,33.5C 141.833,33.5 140.167,33.5 138.5,33.5C 137.637,32.0597 137.637,30.7264 138.5,29.5C 136.556,28.1993 134.556,27.1993 132.5,26.5C 133.833,26.5 135.167,26.5 136.5,26.5C 136.5,25.5 136.5,24.5 136.5,23.5C 137.222,23.9175 137.722,24.5842 138,25.5C 138.181,22.3054 138.681,19.3054 139.5,16.5 Z"/></g>
<g><path style="opacity:0.027" fill="#f5f5f1" d="M 154.5,25.5 C 154.833,25.5 155.167,25.5 155.5,25.5C 153.345,27.534 151.012,27.8674 148.5,26.5C 150.5,26.1667 152.5,25.8333 154.5,25.5 Z"/></g>
<g><path style="opacity:0.014" fill="#fcfdf9" d="M 163.5,26.5 C 164.833,26.5 166.167,26.5 167.5,26.5C 167.38,27.5862 166.713,28.2528 165.5,28.5C 164.287,28.2528 163.62,27.5862 163.5,26.5 Z"/></g>
<g><path style="opacity:0.015" fill="#fcfdfa" d="M 179.5,26.5 C 180.833,26.5 182.167,26.5 183.5,26.5C 182.443,30.1684 181.109,30.1684 179.5,26.5 Z"/></g>
<g><path style="opacity:0.029" fill="#fbfbf8" d="M 209.5,24.5 C 209.833,24.5 210.167,24.5 210.5,24.5C 212.78,26.2227 215.447,26.8893 218.5,26.5C 217.154,28.127 215.654,28.7937 214,28.5C 212.933,27.8095 211.766,27.3095 210.5,27C 209.748,26.3292 209.414,25.4959 209.5,24.5 Z"/></g>
<g><path style="opacity:0.008" fill="#f8f9fa" d="M 15.5,27.5 C 16.8333,28.1667 16.8333,28.1667 15.5,27.5 Z"/></g>
<g><path style="opacity:0.04" fill="#fbfbf9" d="M 84.5,23.5 C 84.5,24.5 84.5,25.5 84.5,26.5C 85.8333,26.5 87.1667,26.5 88.5,26.5C 87.7961,28.3442 86.4628,28.8442 84.5,28C 83.1991,26.3845 83.1991,24.8845 84.5,23.5 Z"/></g>
<g><path style="opacity:0.898" fill="#c0c0b9" d="M 194.5,16.5 C 195.473,18.1392 196.806,19.4726 198.5,20.5C 198.402,23.2476 199.402,23.9143 201.5,22.5C 200.226,25.7598 198.56,28.7598 196.5,31.5C 194.958,32.3007 193.292,32.634 191.5,32.5C 191.062,32.5654 190.728,32.3988 190.5,32C 192.494,29.8425 193.828,27.3425 194.5,24.5C 195.156,25.2778 195.989,25.9444 197,26.5C 197.5,26.1667 198,25.8333 198.5,25.5C 196.636,22.6675 195.303,19.6675 194.5,16.5 Z"/></g>
<g><path style="opacity:0.059" fill="#fafbf6" d="M 196.5,31.5 C 196.5,32.1667 196.5,32.8333 196.5,33.5C 194.833,33.5 193.167,33.5 191.5,33.5C 191.5,33.1667 191.5,32.8333 191.5,32.5C 193.292,32.634 194.958,32.3007 196.5,31.5 Z"/></g>
</svg>